<svg xmlns="http://www.w3.org/2000/svg" xmlns:xlink="http://www.w3.org/1999/xlink" fill="none" stroke="none" stroke-linecap="square" stroke-miterlimit="10" version="1.1" viewBox="0 0 19 19"><clipPath id="p.0"><path d="m0 0l19.0 0l0 19.0l-19.0 0l0 -19.0z" clip-rule="nonzero"/></clipPath><g clip-path="url(#p.0)"><path fill="#000" fill-opacity="0" fill-rule="evenodd" d="m0 0l19.0 0l0 19.0l-19.0 0z"/><path fill="#000" fill-opacity="0" fill-rule="evenodd" d="m7.8122807 5.7002916l0 0c0 -0.26293612 0.21315193 -0.47608805 0.47608852 -0.47608805l8.654122 0c0.12626648 0 0.24736214 0.050158978 0.33664513 0.13944292c0.0892849 0.08928394 0.13944244 0.21037865 0.13944244 0.33664513l0 11.835225c0 0.26293564 -0.21315193 0.47608757 -0.47608757 0.47608757l-8.654122 0c-0.2629366 0 -0.47608852 -0.21315193 -0.47608852 -0.47608757z"/><path fill-rule="evenodd" stroke="#000" stroke-linecap="butt" stroke-linejoin="round" stroke-width="1" d="m7.8122807 5.7002916l0 0c0 -0.26293612 0.21315193 -0.47608805 0.47608852 -0.47608805l8.654122 0c0.12626648 0 0.24736214 0.050158978 0.33664513 0.13944292c0.0892849 0.08928394 0.13944244 0.21037865 0.13944244 0.33664513l0 11.835225c0 0.26293564 -0.21315193 0.47608757 -0.47608757 0.47608757l-8.654122 0c-0.2629366 0 -0.47608852 -0.21315193 -0.47608852 -0.47608757z"/><path fill="#000" fill-opacity="0" fill-rule="evenodd" d="m1.5839404 1.4681454l0 0c0 -0.26293623 0.21315193 -0.47608817 0.47608817 -0.47608817l8.654123 0c0.12626648 0 0.24736118 0.050159216 0.33664513 0.13944304c0.08928394 0.089283824 0.1394434 0.21037877 0.1394434 0.33664513l0 11.835225c0 0.2629366 -0.21315193 0.47608852 -0.47608852 0.47608852l-8.654123 0c-0.26293623 0 -0.47608817 -0.21315193 -0.47608817 -0.47608852z"/><path fill-rule="evenodd" stroke="#000" stroke-linecap="butt" stroke-linejoin="round" stroke-width="1" d="m1.5839404 1.4681454l0 0c0 -0.26293623 0.21315193 -0.47608817 0.47608817 -0.47608817l8.654123 0c0.12626648 0 0.24736118 0.050159216 0.33664513 0.13944304c0.08928394 0.089283824 0.1394434 0.21037877 0.1394434 0.33664513l0 11.835225c0 0.2629366 -0.21315193 0.47608852 -0.47608852 0.47608852l-8.654123 0c-0.26293623 0 -0.47608817 -0.21315193 -0.47608817 -0.47608852z"/></g></svg>